PathFileType	4	(X/Y/Z)	C:\Users\Basilio\Documents\Thesis Gigler\squatting_fais\c3dfiles\073\SLS_back_pre2\markers_experimental.trc
DataRate	CameraRate	NumFrames	NumMarkers	Units	OrigDataRate	OrigDataStartFrame	OrigNumFrames
200.000000	200.000000	4	61	mm	200.000000	475	1267
Frame#	Time	FHD			LBHD			RBHD			C7			T10			CLAV			LSHO			LUUPA			LMUPA			LDUPA			LLEP			LMEP			LRAD			LUL			LRFIN			RSHO			RUPA1			RMUPA			RDUPA			RLEP			RMEP			RRAD			RUL			RUFIN			LASI			RASI			USACR			LSACR			RSACR			LTHI1			LTHI2			LTHI3			LTHI4			LLFC			LMFC			LTIB1			LTIB2			LTIB3			LTIB4			LLMAL			LMMAL			LHEE			LMT1			LMT2			LMT5			RTHI			RTHI2			RTHI3			RTHI4			RLFC			RTIB1			RTIB2			RTIB3			RTIB4			RLMAL			RMMAL			RHEE			RMT1			RMT2			RMT5			RMFC			
		X1	Y1	Z1	X2	Y2	Z2	X3	Y3	Z3	X4	Y4	Z4	X5	Y5	Z5	X6	Y6	Z6	X7	Y7	Z7	X8	Y8	Z8	X9	Y9	Z9	X10	Y10	Z10	X11	Y11	Z11	X12	Y12	Z12	X13	Y13	Z13	X14	Y14	Z14	X15	Y15	Z15	X16	Y16	Z16	X17	Y17	Z17	X18	Y18	Z18	X19	Y19	Z19	X20	Y20	Z20	X21	Y21	Z21	X22	Y22	Z22	X23	Y23	Z23	X24	Y24	Z24	X25	Y25	Z25	X26	Y26	Z26	X27	Y27	Z27	X28	Y28	Z28	X29	Y29	Z29	X30	Y30	Z30	X31	Y31	Z31	X32	Y32	Z32	X33	Y33	Z33	X34	Y34	Z34	X35	Y35	Z35	X36	Y36	Z36	X37	Y37	Z37	X38	Y38	Z38	X39	Y39	Z39	X40	Y40	Z40	X41	Y41	Z41	X42	Y42	Z42	X43	Y43	Z43	X44	Y44	Z44	X45	Y45	Z45	X46	Y46	Z46	X47	Y47	Z47	X48	Y48	Z48	X49	Y49	Z49	X50	Y50	Z50	X51	Y51	Z51	X52	Y52	Z52	X53	Y53	Z53	X54	Y54	Z54	X55	Y55	Z55	X56	Y56	Z56	X57	Y57	Z57	X58	Y58	Z58	X59	Y59	Z59	X60	Y60	Z60	X61	Y61	Z61	

476	2.375	-48.36268997192384	1411.83349609375	-766.1646118164064	-183.8408813476563	1395.5576171875	-794.474792480469	-212.6035919189454	1381.885375976563	-661.4671020507814	-251.2628173828126	1305.738403320313	-722.7172851562501	-442.374969482422	1033.39013671875	-733.6633300781251	-163.6245422363282	1182.181274414063	-721.0035400390626	-175.8229064941407	1251.358764648438	-855.4105224609377	-105.7726211547852	1172.836791992188	-952.2423095703127	-64.0094680786133	1185.6826171875	-927.7212524414065	-48.2293167114258	1137.47216796875	-961.8520507812502	52.92684936523439	1100.374145507813	-962.751647949219	41.72250366210938	1044.2158203125	-920.359313964844	308.2536926269532	1098.268676757813	-840.051208496094	315.0757446289063	1094.266967773438	-914.0531005859377	390.208221435547	1101.153686523438	-828.7437133789065	-164.225326538086	1235.726440429688	-583.1235351562501	-94.83689117431642	1132.082763671875	-477.2667541503907	-52.80114364624025	1147.355834960938	-494.7250061035157	-36.72405242919923	1095.254516601563	-470.0318908691407	52.57290649414064	1066.486083984375	-468.4233703613282	44.01838302612305	1012.744262695313	-531.0450439453126	305.3137817382813	1077.8564453125	-582.9276733398439	316.6261901855469	1083.953369140625	-509.9329223632814	397.2058410644532	1100.871704101563	-587.2675170898439	-366.1301269531251	817.2478027343752	-861.061462402344	-360.3323364257813	837.4658203125002	-619.7931518554689	-513.5225830078126	943.3079833984377	-730.5603027343751	-533.9788208007814	918.7952880859377	-756.5066528320314	-538.0252075195314	921.5183715820315	-699.5701293945314	-420.5029296875001	510.2511596679689	-916.998229980469	-384.0485839843751	434.5751037597657	-900.119079589844	-342.7234802246094	438.5601806640626	-873.4371337890627	-414.7734375000001	383.7716979980469	-889.887878417969	-427.1859130859376	339.7481384277344	-890.638854980469	-432.9588012695314	339.7617187500001	-754.3489990234376	-593.6248779296876	261.9562072753907	-835.7263183593752	-638.5724487304689	311.9288940429688	-890.8607177734377	-641.7410888671876	274.8242797851563	-868.2675781250002	-719.9921264648439	271.4356994628907	-834.2760009765627	-841.8223266601565	322.7522583007813	-864.8941650390627	-815.8603515625002	320.1384277343751	-778.9685668945315	-872.1119384765627	385.7933959960939	-826.618591308594	-878.4014282226565	167.9300231933594	-767.1519775390626	-879.0503540039065	162.1506805419922	-807.0078125000002	-905.247985839844	191.0413208007813	-860.2490844726565	-345.5646057128907	651.8529663085939	-557.1213378906251	-282.2032470703126	634.9125976562501	-567.1040039062501	-259.1951293945313	657.0203247070314	-575.0362548828126	-254.8607940673829	559.5480957031251	-593.8670043945314	-169.6860504150391	459.019500732422	-634.4996337890626	-191.5269165039063	311.8471069335938	-739.1568603515626	-237.022201538086	239.2801513671876	-673.9873657226564	-221.8671569824219	232.2892608642579	-718.2890625000001	-263.0156250000001	204.2736511230469	-748.6390380859376	-351.7275085449219	95.67578125000001	-691.3209838867189	-346.1401672363282	125.5459823608399	-779.1431884765627	-430.5296020507814	80.01772308349611	-744.9769287109376	-206.4016571044922	54.74729156494142	-762.4095458984376	-205.7909698486329	53.8032913208008	-720.4392700195314	-248.4979553222657	36.30702209472657	-672.1221313476564	-180.0093383789063	465.4653320312501	-760.1972656250001	
477	2.38	-47.67439270019532	1410.636962890625	-766.0905151367189	-183.6068420410157	1394.59521484375	-794.4647216796877	-212.4233856201172	1380.690307617188	-661.4700927734376	-250.9404296875001	1304.661254882813	-722.7113647460939	-442.2821655273439	1032.543090820313	-733.7437744140626	-163.3827362060547	1181.03955078125	-721.1090087890626	-175.3817138671875	1250.2841796875	-855.3450927734377	-105.598258972168	1171.659423828125	-952.3244628906252	-63.70273971557619	1184.631958007813	-927.7253417968752	-47.87773513793946	1136.546752929688	-961.976257324219	53.09351730346681	1099.193359375	-962.7493286132815	41.9353256225586	1042.828491210938	-920.3301391601565	308.4791564941407	1096.96484375	-840.0376586914065	315.4523620605469	1093.155639648438	-914.0122070312502	390.5316772460939	1099.889526367188	-828.6821899414065	-163.8723602294922	1234.635375976563	-583.2216186523439	-94.61347961425783	1131.037475585938	-477.2706298828126	-52.57101821899415	1146.3974609375	-494.8091125488282	-36.48363876342774	1094.213256835938	-470.0526123046876	52.81538009643556	1065.341796875	-468.5459289550782	44.24584197998048	1011.556030273438	-531.1531982421876	305.1882629394532	1076.945434570313	-583.4537963867189	316.9129943847657	1082.9033203125	-510.050750732422	397.4486694335939	1099.85791015625	-587.3580932617189	-366.1894531250001	816.239440917969	-860.875427246094	-360.1484375000001	837.2490234375002	-619.6744995117189	-513.6649780273439	942.527282714844	-730.5394287109376	-533.9965820312501	918.022155761719	-756.4704589843751	-537.9150390625001	920.9517211914065	-699.5880126953126	-420.6782836914064	509.4208984375001	-916.816101074219	-384.3474731445314	433.6876220703126	-899.9584960937502	-342.9491271972657	437.6651916503907	-873.3079223632815	-415.051971435547	382.9465332031251	-889.7759399414065	-427.4977111816407	338.7839660644532	-890.534362792969	-433.2630615234376	338.9738464355469	-754.2042236328126	-594.0593872070314	261.5657653808594	-835.6052856445315	-638.8417968750001	311.5440368652344	-890.6842041015627	-642.6153564453126	274.2105102539063	-867.7544555664065	-720.3543701171876	271.2978210449219	-834.1230468750002	-841.9209594726565	322.7260131835938	-864.4304199218752	-816.166687011719	320.1956787109376	-778.8209228515627	-872.2520751953127	385.944549560547	-826.484558105469	-879.401306152344	168.0318450927735	-766.7159423828126	-880.442077636719	161.9862670898438	-806.2315063476565	-905.9406738281252	191.31005859375	-859.9635009765627	-345.6552124023438	651.3497314453126	-556.9603881835939	-282.2417602539063	634.5662841796876	-566.8309326171876	-259.2427978515626	656.5974731445314	-574.8721923828126	-254.7246551513672	559.2322387695314	-593.6351318359376	-169.4798126220703	458.8209533691407	-634.3141479492189	-191.3825073242188	311.7320251464844	-739.0026855468751	-236.9436187744141	239.2082214355469	-673.8859252929689	-221.7636260986329	232.2403717041016	-718.1716308593751	-262.9644470214844	204.2061004638672	-748.5303344726564	-351.7295227050782	95.64511871337892	-691.2584228515626	-346.2245483398438	125.5451049804688	-779.0352783203127	-430.5095825195314	80.01985931396486	-744.9450683593751	-206.4458160400391	54.74237060546876	-762.3695678710939	-205.7922821044922	53.75869369506837	-720.4371948242189	-248.4700164794922	36.25418090820313	-672.0969848632814	-179.6884307861328	465.3377685546876	-759.9975585937501	
478	2.385	-47.35585403442384	1409.617553710938	-766.2305297851564	-183.3353576660157	1393.436401367188	-794.4915771484377	-212.0900878906251	1379.80859375	-661.6275024414064	-250.5804138183594	1303.584838867188	-722.7359619140626	-442.2717895507814	1031.66455078125	-733.7395019531251	-163.11328125	1179.789428710938	-721.1069946289064	-175.1546936035157	1249.2646484375	-855.3406372070315	-105.412467956543	1170.657470703125	-952.299011230469	-63.50549316406251	1183.588745117188	-927.6903076171877	-47.46241760253907	1135.457275390625	-962.021423339844	53.30249786376955	1098.292236328125	-962.825622558594	42.18052673339844	1042.017333984375	-920.7622680664065	308.7008056640626	1095.9833984375	-840.093688964844	315.6210937500001	1091.955810546875	-914.0642700195315	391.1876220703126	1098.773315429688	-829.1423339843752	-163.5772094726563	1233.65380859375	-583.3512573242189	-94.28789520263673	1129.996337890625	-477.3646545410157	-52.3003387451172	1145.263061523438	-494.919403076172	-36.19220352172852	1093.128540039063	-470.1568603515626	53.09698867797853	1064.372680664063	-468.6410522460939	44.52959060668946	1010.582336425781	-531.1835937500001	305.5520935058594	1075.551025390625	-583.6766967773439	317.1991271972657	1081.777709960938	-510.1189270019532	397.7184448242189	1098.7265625	-587.4055786132814	-366.3997192382813	815.3925781250002	-861.0076904296877	-360.2070007324219	836.324645996094	-619.7987060546876	-513.6613159179689	941.761169433594	-730.5919189453126	-533.9611816406251	917.2609863281252	-756.4878540039064	-537.9916992187501	920.2620849609377	-699.6076049804689	-421.0040893554689	508.4749450683595	-916.7457275390627	-384.5469665527345	432.8468627929689	-899.8342895507815	-343.1752929687501	436.783172607422	-873.1616210937502	-415.3211059570314	381.9547119140626	-889.6962890625002	-427.7161254882814	337.9732360839844	-890.4033203125002	-433.546356201172	338.0599975585938	-754.0500488281251	-594.6134643554689	260.8683471679688	-835.7310791015627	-638.7188110351564	310.8448791503907	-890.4910888671877	-642.9780883789064	273.8267822265626	-867.6756591796877	-720.8306884765626	271.1547851562501	-833.9606933593752	-842.316345214844	322.7095642089844	-864.2422485351565	-816.4865722656252	320.2363586425782	-778.6455688476565	-872.3481445312502	386.1113281250001	-826.360290527344	-880.0830688476565	168.2058258056641	-766.6206054687501	-881.345886230469	162.0746002197266	-805.8906860351565	-906.5144653320315	191.5631256103516	-859.6760864257815	-345.7363586425782	650.9010620117189	-556.7556762695314	-282.2806091308594	634.2009277343751	-566.7324829101564	-259.3176879882813	656.2483520507814	-574.6592407226564	-254.6246185302735	558.9071044921876	-593.4032592773439	-169.1750946044922	458.6282348632814	-634.0316772460939	-191.3408203125	311.6086730957032	-738.8508911132814	-236.8727722167969	239.1155853271485	-673.7346191406251	-221.6929779052735	232.1888427734376	-718.0177001953126	-262.9037475585938	204.1470336914063	-748.4137573242189	-351.7433776855469	95.58772277832033	-691.1840209960939	-346.1705017089844	125.5754470825196	-778.950134277344	-430.509979248047	80.02035522460939	-744.9478759765626	-206.4258728027344	54.74488449096681	-762.3543701171876	-205.7737579345704	53.75960159301759	-720.3722534179689	-248.4856567382813	36.25725555419923	-672.0745849609376	-179.3114929199219	465.1828002929689	-759.7716674804689	
479	2.39	-47.44471740722657	1408.547607421875	-766.4889526367189	-183.0356750488282	1392.341552734375	-794.5142822265627	-211.7157135009766	1378.557250976563	-661.5336303710939	-250.2800903320313	1302.6142578125	-722.8015136718751	-442.1876220703126	1030.880615234375	-733.8207397460939	-163.5995788574219	1178.510498046875	-721.4567871093751	-174.9794921875	1248.137084960938	-855.454040527344	-105.0898208618164	1169.659057617188	-952.3152465820315	-63.10155105590822	1182.618041992188	-927.7476806640627	-47.33934402465821	1134.38720703125	-962.1159667968752	53.56129074096681	1097.1650390625	-962.810241699219	42.4250831604004	1040.947143554688	-920.6635742187502	308.9543151855469	1094.729125976563	-840.1243286132815	315.8439636230469	1090.94921875	-914.1536865234377	391.4562377929689	1097.606811523438	-829.0756835937502	-163.3346099853516	1232.529174804688	-583.3974609375001	-94.07492065429689	1128.920654296875	-477.626190185547	-52.04971313476564	1144.249389648438	-494.9375610351564	-35.97269821166993	1092.155029296875	-470.184295654297	53.41751861572267	1063.271850585938	-468.6807861328126	44.81938171386719	1009.63623046875	-531.2618408203126	306.1297302246094	1074.736938476563	-583.2296142578126	317.5004577636719	1080.708984375	-510.2559509277345	398.021453857422	1097.677124023438	-587.5555419921876	-366.4707946777344	814.3963623046877	-860.8204345703127	-360.4971313476563	835.6127929687502	-619.6194458007814	-513.7902832031251	941.1099853515627	-730.6658325195314	-534.1620483398439	916.4944458007815	-756.5267333984376	-538.1608886718751	919.4582519531252	-699.6723022460939	-421.3091430664064	507.637176513672	-916.6355590820315	-384.7771911621095	431.8810424804689	-899.9077758789065	-343.3648071289063	435.8949279785157	-873.0817871093752	-415.5360412597657	381.0491943359376	-889.6343383789065	-428.0358886718751	337.1371459960938	-890.3522949218752	-433.7967224121095	337.2534790039063	-753.9393920898439	-594.9048461914064	260.6248474121094	-835.2108154296877	-639.0633544921876	310.6339721679688	-890.3081054687502	-643.1821289062501	273.3216247558594	-867.536315917969	-721.2197265625001	270.9567871093751	-833.8234863281252	-842.674499511719	322.8312377929688	-864.0504150390627	-816.7408447265627	320.2810058593751	-778.5191040039065	-872.4448242187502	386.2736206054689	-826.241149902344	-880.3726806640627	168.4066162109375	-767.0086669921876	-881.1030883789065	162.7132568359375	-806.2701416015627	-907.171325683594	191.8039245605469	-859.443542480469	-345.8688964843751	650.4037475585939	-556.6098022460939	-282.3794555664063	633.8314819335939	-566.5352783203126	-259.3924865722657	655.9409179687501	-574.4724121093751	-254.5703277587891	558.5380859375001	-593.2315673828126	-168.9705200195313	458.4231567382814	-633.8615112304689	-191.133285522461	311.5155639648438	-738.7292480468751	-236.8024291992188	239.0210571289063	-673.6098022460939	-221.5852355957032	232.1232299804688	-717.8032836914064	-262.7122802734376	204.0987548828126	-748.3164672851564	-351.6958312988282	95.5489959716797	-691.1453247070314	-346.1642456054688	125.6134796142578	-778.878601074219	-430.4872131347657	80.03392028808595	-744.9098510742189	-206.5250244140626	54.71837997436525	-762.3750610351564	-205.8014068603516	53.71072006225587	-720.3673706054689	-248.4930419921876	36.25291442871094	-672.0257568359376	-179.0900268554688	465.014862060547	-759.6110839843751	
